<?xml version="1.0" encoding="UTF-8"?>
<svg id="Layer_2" data-name="Layer 2" xmlns="http://www.w3.org/2000/svg" viewBox="0 0 99.86 97.2">
  <defs>
    <style>
      .cls-1 {
        fill: #00a651;
      }

      .cls-1, .cls-2 {
        stroke-width: 0px;
      }

      .cls-3 {
        fill: #005494;
        stroke: #231f20;
        stroke-miterlimit: 10;
      }

      .cls-4 {
        opacity: .75;
      }

      .cls-2 {
        fill: #231f20;
      }
    </style>
  </defs>
  <g id="Layer_1-2" data-name="Layer 1">
    <g>
      <ellipse class="cls-3" cx="49.93" cy="48.6" rx="49.43" ry="48.1" transform="translate(-1.14 1.2) rotate(-1.36)"/>
      <g>
        <path class="cls-1" d="m23.68,33.67l-10.06-4.68c-.26-2.63-.53-5.26-.79-7.9,4.3.4,8.6.81,12.89,1.21l-2.04,11.36Z"/>
        <path class="cls-1" d="m11.11,18.09l7.92,1.3c.46,1.33.91,2.66,1.37,3.99-3.23.27-6.45.54-9.68.81l.39-6.1Z"/>
        <path class="cls-1" d="m19.19,33.6l3.43,10.16c-.38,1.22-.77,2.45-1.15,3.67-1.77-3.73-3.53-7.46-5.3-11.2l3.02-2.64Z"/>
        <path class="cls-1" d="m32.01,13.99l-1.05,10.76c-.93.51-1.86,1.02-2.79,1.53-.13-4.45-.26-8.9-.38-13.36l4.22,1.06Z"/>
        <path class="cls-1" d="m26.1,16.62l-.83,8.59c-.57.45-1.15.9-1.72,1.35,0-3.53.01-7.05.02-10.58l2.54.64Z"/>
        <path class="cls-1" d="m21.5,38.29l-6.84-3.18c-.12-2.13-.24-4.26-.36-6.4,2.96.06,5.93.11,8.89.17l-1.69,9.41Z"/>
        <path class="cls-1" d="m31.93,46.36l-1.17,18.04c-1.25,1.02-2.49,2.05-3.74,3.07-.27-7.36-.54-14.72-.81-22.08l5.73.97Z"/>
        <path class="cls-1" d="m27.7,50.8l1.86,23.8c-.56,1.75-1.11,3.5-1.67,5.24-1.18-9.45-2.36-18.91-3.54-28.36l3.35-.68Z"/>
        <path class="cls-1" d="m28.73,40.61l1.05,11.24c-1.62,1.17-3.24,2.34-4.86,3.5-1.49-4.25-2.99-8.5-4.48-12.74l8.3-2Z"/>
      </g>
      <g>
        <path class="cls-1" d="m72.32,50.4c4.32-1.11,8.64-2.21,12.96-3.32-2.29,4.5-4.59,9-6.88,13.5-2.77.98-5.54,1.95-8.31,2.93l2.23-13.11Z"/>
        <path class="cls-1" d="m78.24,56.5h-12.34c.43-2.69.86-5.38,1.29-8.06,3.68-2.03,7.37-4.06,11.05-6.09v14.15Z"/>
        <path class="cls-1" d="m78.37,54.58v19.62c-1.82-.68-3.65-1.36-5.47-2.04-1.38-5.86-2.75-11.72-4.13-17.58h9.6Z"/>
      </g>
      <g>
        <g>
          <path class="cls-1" d="m68.75,41.25c-.7-.45-1.39-.9-2.09-1.35-.49-1.57-.97-3.14-1.46-4.71h3.54v6.06Z"/>
          <path class="cls-1" d="m65.26,29.78c.32.33.65.67.97,1,.2,1.08.4,2.16.6,3.24l-1.7-.16.12-4.08Z"/>
          <path class="cls-1" d="m67.27,38.46c1.07-2.45,2.14-4.9,3.21-7.36,2.41-2.98,4.83-5.96,7.24-8.95l1.39,11.81-11.84,4.5Z"/>
          <path class="cls-1" d="m63.88,32.25c-.45.24-.9.47-1.35.71-.3.75-.61,1.5-.91,2.26l2.32-.14-.05-2.83Z"/>
          <path class="cls-1" d="m83.36,41.43c-1.33,2.5-2.67,5.01-4,7.51-1.22-4.52-2.44-9.04-3.67-13.55l3.25-1.71,1.32,8.07c1.03-.11,2.06-.22,3.09-.32Z"/>
          <path class="cls-1" d="m65.89,20.53c.65-.93,1.3-1.85,1.95-2.78,2.38-.94,4.77-1.89,7.15-2.83l.2,4.18-9.3,1.43Z"/>
          <path class="cls-1" d="m66.23,27.2c.54-1.11,1.07-2.21,1.61-3.32,2.27-2.15,4.54-4.3,6.81-6.44l.71,3.13-9.13,6.63Z"/>
          <path class="cls-1" d="m74.36,14.9c.7.75,1.39,1.51,2.09,2.26.43,2.44.86,4.89,1.29,7.33l-3.65-.35.28-9.24Z"/>
          <path class="cls-1" d="m82.43,18.94c-.74-1.3-1.47-2.59-2.21-3.89-1.83-.18-3.66-.35-5.49-.53l1.36,7.91,6.35-3.5Z"/>
        </g>
        <path class="cls-1" d="m91.29,27.1c-1.22-1.25-2.43-2.5-3.65-3.75-3.41.54-6.83,1.09-10.24,1.63l1.53,8.93,12.36-6.81Z"/>
        <path class="cls-1" d="m92.77,33.42c-1.14-.29-2.28-.57-3.42-.86-3.59,1.34-7.17,2.68-10.76,4.02l.73,4.25,13.45-7.41Z"/>
        <path class="cls-1" d="m89.12,19.08c-2.35,2.95-4.71,5.9-7.06,8.85-.99,4.83-1.97,9.65-2.96,14.48l13.17-9.99-3.15-13.34Z"/>
      </g>
      <polygon class="cls-1" points="96.32 47.9 84.46 23.87 91.53 21.53 96.32 47.9"/>
      <g class="cls-4">
        <path class="cls-2" d="m30.57,48.19l-6.77,13.24c-.39.67-.59,1.1-.59,1.27,0,.51.53.88,1.6,1.09v.54h-9.53v-.54c.97-.15,1.45-.53,1.45-1.14,0-.17-.2-.67-.61-1.49l-8.48-16.9c-.42-.84-.8-1.41-1.14-1.7-.34-.3-.83-.5-1.49-.6v-.54h10.29v.54c-.91.16-1.37.49-1.37.99,0,.26.12.63.35,1.11l5.85,12.12,6.34-12.19c.27-.53.41-.87.41-1.04,0-.51-.48-.84-1.45-.99v-.54h10.75v.54c-.98.2-1.47.56-1.47,1.09,0,.18.12.51.37,1.01l6.04,12.12,5.83-11.92c.3-.59.46-1.03.46-1.33,0-.49-.52-.82-1.56-.97v-.54h10.18v.54c-.72.16-1.22.36-1.5.6-.27.25-.64.81-1.08,1.69l-8.48,16.9c-.41.8-.61,1.34-.61,1.61,0,.55.51.89,1.54,1.02v.54h-9.65v-.54c1.01-.12,1.52-.5,1.52-1.12,0-.21-.22-.72-.67-1.51l-6.53-12.97Z"/>
        <path class="cls-2" d="m76.03,52.48l8.93,8.9c.98.98,1.69,1.61,2.11,1.88.43.27,1.01.45,1.77.54v.54h-11.74v-.54c.87-.13,1.3-.42,1.3-.87,0-.24-.26-.62-.78-1.14l-5.52-5.53-5.58,5.35c-.59.59-.89,1.01-.89,1.26,0,.56.48.87,1.45.94v.54h-11.37v-.54c.67-.06,1.18-.2,1.55-.44.37-.23,1.11-.89,2.22-1.98l9.04-8.7-8.33-8.34c-1.07-1.08-1.78-1.74-2.14-1.95-.35-.22-.92-.35-1.7-.41l-.02-.54h11.87v.54c-.87.18-1.3.52-1.3,1.02,0,.27.31.72.93,1.34l4.6,4.58,4.76-4.58c.69-.68,1.04-1.16,1.04-1.44,0-.49-.5-.8-1.5-.92v-.54h11.55v.54c-.69.06-1.19.18-1.49.36s-1.06.85-2.29,2l-8.5,8.15Z"/>
      </g>
      <g>
        <path class="cls-2" d="m31.04,39.86l-6.77,13.24c-.39.67-.59,1.1-.59,1.27,0,.51.53.88,1.6,1.09v.54h-9.53v-.54c.97-.15,1.45-.53,1.45-1.14,0-.17-.2-.67-.61-1.49l-8.48-16.9c-.42-.84-.8-1.41-1.14-1.7-.34-.3-.83-.5-1.49-.6v-.54h10.29v.54c-.91.16-1.37.49-1.37.99,0,.26.12.63.35,1.11l5.85,12.12,6.34-12.19c.27-.53.41-.87.41-1.04,0-.51-.48-.84-1.45-.99v-.54h10.75v.54c-.98.2-1.47.56-1.47,1.09,0,.18.12.51.37,1.01l6.04,12.12,5.83-11.92c.3-.59.46-1.03.46-1.33,0-.49-.52-.82-1.56-.97v-.54h10.18v.54c-.72.16-1.22.36-1.5.6-.27.25-.64.81-1.08,1.69l-8.48,16.9c-.41.8-.61,1.34-.61,1.61,0,.55.51.89,1.54,1.02v.54h-9.65v-.54c1.01-.12,1.52-.5,1.52-1.12,0-.21-.22-.72-.67-1.51l-6.53-12.97Z"/>
        <path class="cls-2" d="m76.5,44.14l8.93,8.9c.98.98,1.69,1.61,2.11,1.88.43.27,1.01.45,1.77.54v.54h-11.74v-.54c.87-.13,1.3-.42,1.3-.87,0-.24-.26-.62-.78-1.14l-5.52-5.53-5.58,5.35c-.59.59-.89,1.01-.89,1.26,0,.56.48.87,1.45.94v.54h-11.37v-.54c.67-.06,1.18-.2,1.55-.44.37-.23,1.11-.89,2.22-1.98l9.04-8.7-8.33-8.34c-1.07-1.08-1.78-1.74-2.14-1.95-.35-.22-.92-.35-1.7-.41l-.02-.54h11.87v.54c-.87.18-1.3.52-1.3,1.02,0,.27.31.72.93,1.34l4.6,4.58,4.76-4.58c.69-.68,1.04-1.16,1.04-1.44,0-.49-.5-.8-1.5-.92v-.54h11.55v.54c-.69.06-1.19.18-1.49.36s-1.06.85-2.29,2l-8.5,8.15Z"/>
      </g>
    </g>
  </g>
</svg>